<svg version="1" xmlns="http://www.w3.org/2000/svg" width="298.667" height="298.667" viewBox="0 0 224.000000 224.000000"><path d="M34 35.7c0 4.9 12.9 146.5 13.3 147 .8.7 57.6 16.3 59.7 16.3 2.1 0 58.9-15.5 59.7-16.3.4-.5 13.3-142.2 13.3-147V33H34v2.7zm118.7 34c-.4 3.8-.7 8-.7 9.5V82H80.9l.6 6.2c.3 3.5.8 7.8 1.1 9.6l.5 3.2 32.8-.6c21.3-.5 33-.4 33.4.3.8 1.2-4.1 55.5-5.1 56.4-.4.4-8.9 3-18.8 5.7l-18.1 5-18.9-5.2-18.9-5.3-1.2-10.9c-.6-6-1.2-12.6-1.2-14.7L67 128h17.8l.6 3.1c.3 1.7.6 5.1.6 7.4v4.3l7.8 2.1c12.6 3.4 13.1 3.4 23.1.7 5.1-1.4 9.6-2.7 9.9-3 .5-.6 2.1-14.4 2.1-19.9l.1-3.7H66.1l-.5-4.3C65 110.8 61 65.8 61 63.9c0-.5 20.5-.9 46.1-.9h46.2l-.6 6.7z"/></svg>