<?xml version="1.0" standalone="no"?>
<!DOCTYPE svg PUBLIC "-//W3C//DTD SVG 20010904//EN"
 "http://www.w3.org/TR/2001/REC-SVG-20010904/DTD/svg10.dtd">
<svg version="1.0" xmlns="http://www.w3.org/2000/svg"
 width="584.000000pt" height="584.000000pt" viewBox="0 0 584.000000 584.000000"
 preserveAspectRatio="xMidYMid meet">
<metadata>
Created by potrace 1.11, written by Peter Selinger 2001-2013
</metadata>
<g transform="translate(0.000000,584.000000) scale(0.100000,-0.100000)"
fill="#000000" stroke="none">
<path d="M2000 5005 c0 -10 359 -362 365 -357 3 3 5 1 5 -4 0 -14 148 -163
155 -156 3 3 5 1 5 -5 0 -13 120 -133 133 -133 4 0 5 -4 2 -10 -3 -5 2 -10 11
-10 10 0 15 -3 12 -6 -7 -6 39 -54 51 -54 4 0 14 -11 21 -25 7 -13 20 -27 29
-30 9 -3 27 -21 41 -39 14 -19 27 -33 29 -31 5 6 31 -22 31 -34 0 -6 5 -11 10
-11 6 0 19 -9 30 -20 11 -11 20 -24 20 -30 0 -5 4 -10 9 -10 5 0 47 -38 93
-85 47 -47 88 -82 92 -78 4 4 4 0 0 -10 -3 -10 -1 -17 5 -17 7 0 37 -26 67
-57 31 -32 60 -57 65 -55 5 1 8 -1 7 -6 -4 -10 390 -402 403 -402 6 0 9 -7 5
-15 -3 -9 0 -15 8 -15 7 0 21 -11 32 -24 10 -14 21 -23 26 -20 4 3 8 0 8 -6 0
-6 25 -34 55 -62 30 -28 51 -56 48 -62 -3 -6 -2 -8 2 -4 5 5 36 -20 69 -54 34
-34 62 -61 64 -60 1 1 20 22 42 47 22 26 40 43 40 39 0 -4 9 3 20 16 11 13 20
28 20 33 0 6 2 8 5 5 7 -7 130 114 127 125 -2 7 13 11 31 8 4 0 7 9 7 21 0 12
2 19 5 16 7 -7 255 237 255 251 0 6 4 10 8 9 11 -4 298 283 294 294 -1 4 3 7
9 6 22 -5 20 19 -3 40 -13 12 -42 39 -65 61 -23 21 -39 42 -36 45 4 3 -1 6
-10 6 -8 0 -19 9 -22 20 -3 11 -13 20 -21 20 -8 0 -12 5 -9 10 3 6 2 10 -3 10
-12 0 -132 118 -132 130 0 6 -5 10 -10 10 -14 0 -139 128 -132 134 3 4 0 6 -6
6 -6 0 -151 139 -322 309 -171 171 -313 310 -316 310 -2 1 -7 1 -11 1 -5 0 -1
5 7 10 10 6 -117 10 -367 10 -211 0 -383 -3 -383 -7 0 -11 208 -213 219 -213
6 0 10 -4 8 -8 -1 -5 62 -72 141 -149 78 -77 142 -147 142 -154 0 -11 2 -11
10 1 5 8 10 10 10 4 0 -6 29 -41 65 -76 35 -36 61 -68 58 -72 -4 -4 0 -4 8 -1
11 4 18 -1 22 -15 3 -12 10 -20 14 -17 5 3 18 -8 28 -24 11 -16 26 -29 33 -29
7 0 10 -4 7 -10 -3 -5 2 -10 11 -10 10 0 14 -3 11 -7 -4 -3 5 -15 20 -25 16
-10 24 -18 20 -18 -5 0 -2 -7 7 -15 8 -8 19 -15 25 -15 5 0 13 -9 16 -20 3
-11 12 -20 20 -20 8 0 17 -9 20 -20 3 -11 13 -20 21 -20 8 0 12 -4 9 -10 -3
-5 -2 -10 3 -10 11 0 302 -288 302 -299 0 -4 -27 -33 -60 -64 l-60 -58 -24 23
c-13 13 -21 26 -19 31 2 4 1 6 -4 5 -5 -2 -36 25 -70 59 -33 34 -64 59 -67 56
-3 -4 -6 0 -6 8 0 8 -18 29 -40 48 -22 19 -37 38 -34 42 3 5 -7 11 -21 15 -13
3 -23 10 -20 14 3 4 -7 15 -20 24 -14 9 -23 21 -20 26 3 6 -1 7 -9 4 -14 -6
-21 5 -17 29 0 4 -2 6 -6 5 -17 -5 -51 26 -45 40 3 10 1 13 -6 8 -7 -4 -15 -1
-18 8 -3 9 -13 16 -20 16 -8 0 -18 8 -21 18 -9 23 -29 42 -37 35 -3 -4 -6 1
-6 11 0 9 -4 14 -10 11 -5 -3 -10 -1 -10 5 0 15 -26 41 -34 33 -3 -4 -6 1 -6
10 0 10 -7 17 -16 17 -8 0 -13 4 -10 8 3 5 -6 15 -19 22 -14 7 -27 22 -31 32
-3 10 -10 16 -15 13 -5 -4 -9 1 -9 10 0 9 -4 13 -10 10 -5 -3 -10 0 -10 7 0 7
-16 24 -35 38 -19 14 -37 33 -41 43 -3 10 -8 16 -10 14 -6 -6 -74 63 -74 75 0
4 -7 8 -16 8 -9 0 -18 9 -21 20 -3 11 -9 20 -14 20 -13 0 -198 188 -191 194 3
3 0 6 -6 6 -14 0 -258 241 -254 252 1 4 -176 8 -393 8 -217 0 -395 -2 -395 -5z"/>
<path d="M1860 4868 c0 -6 -3 -9 -6 -5 -7 7 -174 -160 -174 -174 0 -5 -4 -8
-8 -6 -5 1 -43 -33 -84 -75 -42 -42 -78 -74 -82 -71 -3 4 -6 1 -6 -5 0 -15
-138 -152 -152 -152 -6 0 -9 -3 -6 -6 7 -7 -44 -60 -54 -56 -5 1 -8 -2 -8 -6
0 -8 -117 -130 -122 -128 -2 1 -21 -17 -43 -38 -22 -22 -33 -36 -25 -32 8 4 4
-2 -10 -13 -14 -11 -29 -21 -33 -21 -5 0 -5 -5 -2 -10 3 -6 -2 -13 -12 -17
-20 -7 -73 -62 -73 -75 0 -4 -5 -7 -12 -5 -7 1 -17 -8 -23 -20 -5 -13 -14 -23
-20 -23 -13 0 -64 -57 -58 -64 2 -2 -5 -7 -16 -11 -11 -3 -23 -15 -26 -26 -4
-11 -9 -18 -12 -15 -3 3 -17 -6 -30 -20 l-23 -25 0 -869 c0 -493 4 -871 9
-874 5 -3 118 103 252 237 134 133 247 241 252 239 4 -1 7 2 7 8 0 12 228 240
241 240 5 0 9 4 9 9 0 14 52 61 61 55 5 -3 6 2 3 10 -4 10 3 20 20 27 14 7 23
16 20 20 -3 5 -2 9 3 9 11 0 78 60 67 60 -5 0 5 9 21 20 17 11 27 20 22 20 -4
0 17 21 46 48 30 26 62 59 73 74 10 15 20 25 22 24 1 -2 76 69 165 158 89 88
166 160 172 158 5 -2 7 -1 3 3 -7 8 123 141 134 137 5 -1 7 1 6 6 -4 10 120
132 134 132 6 0 9 2 6 5 -4 4 147 165 156 166 10 1 81 74 79 80 -2 4 4 9 12
13 8 3 15 11 15 17 0 7 -100 111 -222 233 -123 121 -222 224 -220 229 1 5 -2
6 -8 2 -5 -3 -10 1 -10 9 0 9 -4 15 -8 14 -5 -2 -43 31 -85 73 -42 42 -78 74
-81 71 -3 -3 -6 -1 -6 4 0 15 -77 94 -91 94 -7 0 -10 2 -7 5 6 7 -60 75 -73
75 -5 0 -9 5 -9 10 0 12 -50 59 -62 60 -5 0 -8 -5 -8 -12z"/>
<path d="M4970 3725 c-14 -19 -35 -39 -47 -46 -13 -7 -23 -17 -23 -23 0 -6
-16 -22 -34 -36 -19 -14 -32 -28 -30 -32 2 -4 -5 -9 -16 -13 -11 -4 -18 -11
-15 -16 4 -5 2 -9 -4 -9 -12 0 -70 -57 -64 -64 2 -2 -5 -7 -16 -11 -12 -3 -21
-14 -21 -22 0 -9 -3 -14 -6 -10 -8 7 -34 -17 -34 -32 0 -6 -3 -10 -7 -9 -11 3
-113 -99 -113 -112 0 -5 -3 -9 -7 -8 -5 2 -124 -112 -265 -253 -142 -141 -258
-255 -258 -253 0 1 -15 -12 -33 -29 -18 -18 -31 -35 -29 -39 2 -5 -1 -8 -5 -8
-5 0 -51 -42 -102 -92 -52 -51 -98 -92 -102 -91 -5 2 -5 -5 -2 -15 3 -9 3 -14
-1 -11 -4 4 -37 -23 -74 -60 -37 -36 -70 -65 -74 -63 -5 1 -7 -4 -6 -10 2 -7
-3 -12 -10 -10 -6 1 -11 -2 -10 -6 2 -4 -63 -74 -144 -154 -82 -80 -148 -144
-148 -141 0 3 -13 -10 -29 -30 -15 -20 -31 -34 -35 -30 -3 3 -6 -1 -6 -10 0
-10 -7 -17 -16 -17 -8 0 -12 -4 -9 -10 3 -5 2 -10 -3 -10 -9 0 -92 -78 -92
-86 0 -3 -16 -18 -35 -35 -19 -17 -35 -36 -35 -41 0 -13 519 -528 532 -528 5
0 7 -3 5 -7 -5 -10 91 -102 98 -95 3 3 5 0 5 -6 0 -13 118 -132 131 -132 4 0
11 -9 14 -20 3 -11 13 -20 21 -20 8 0 13 -4 10 -8 -3 -5 6 -15 19 -22 14 -7
25 -20 25 -27 0 -8 5 -11 10 -8 6 3 10 2 10 -4 0 -5 17 7 38 27 21 20 37 40
35 44 -2 4 6 9 16 13 11 3 23 15 26 26 4 11 9 19 11 16 6 -6 104 92 104 104 0
5 3 8 8 7 4 -2 80 70 170 160 89 89 167 162 172 162 6 0 9 3 8 8 -4 10 81 92
94 92 6 0 9 2 6 5 -6 6 85 104 91 99 2 -2 16 12 31 31 15 19 30 32 34 28 3 -3
6 -2 6 4 0 5 9 20 20 33 11 13 20 19 20 14 0 -5 9 5 20 21 11 17 20 27 20 24
0 -3 45 39 100 95 l100 101 0 366 c0 201 -3 369 -7 373 -4 4 -60 -47 -124
-114 -65 -66 -122 -120 -129 -120 -6 0 -9 -3 -7 -7 4 -10 -60 -73 -66 -66 -3
2 -8 -5 -12 -16 -3 -12 -11 -21 -16 -21 -10 0 -39 -25 -39 -33 0 -5 -81 -87
-86 -87 -6 0 -94 -94 -94 -101 0 -4 -9 -11 -20 -14 -11 -3 -20 -14 -20 -22 0
-9 -3 -14 -6 -11 -6 7 -27 -12 -61 -56 -13 -16 -23 -26 -23 -22 0 4 -11 -4
-25 -18 -14 -14 -25 -30 -25 -36 0 -5 -3 -9 -7 -8 -5 1 -86 -75 -180 -170 -95
-95 -174 -172 -176 -172 -7 0 -117 111 -117 118 0 14 65 82 78 82 6 0 11 6 10
13 -2 6 2 11 9 10 6 -2 15 6 18 17 4 11 13 20 21 20 8 0 14 4 14 10 0 9 46 59
52 56 2 -1 13 8 25 21 12 13 20 23 18 23 -3 0 22 24 54 54 33 30 57 56 55 59
-2 2 7 10 21 17 14 7 25 20 25 27 0 8 4 12 9 8 5 -3 12 4 16 15 4 11 10 18 15
15 5 -3 12 4 15 16 4 11 9 19 11 16 3 -2 178 168 389 378 l385 382 -2 368 c-2
235 -7 369 -13 371 -5 2 -21 -12 -35 -31z"/>
<path d="M1675 2686 c-47 -46 -85 -82 -85 -79 0 3 -13 -11 -30 -32 -16 -21
-30 -35 -30 -31 0 4 -6 1 -14 -6 -8 -7 -13 -15 -12 -18 1 -3 -8 -15 -21 -27
-13 -12 -23 -21 -23 -19 0 2 -21 -17 -48 -43 -26 -25 -46 -49 -45 -52 2 -4 -4
-10 -13 -13 -8 -3 -12 -11 -8 -17 4 -7 3 -9 -3 -6 -12 7 -173 -148 -173 -166
0 -5 -2 -8 -5 -5 -7 7 -85 -69 -85 -83 0 -5 -4 -8 -10 -4 -5 3 -16 -7 -24 -22
-8 -15 -16 -26 -18 -23 -2 3 -40 -32 -85 -77 -45 -46 -78 -83 -74 -83 10 0
141 -131 141 -142 0 -4 6 -8 14 -8 8 0 18 -9 21 -21 4 -11 9 -18 11 -16 6 6
94 -84 94 -97 0 -5 2 -7 5 -4 3 3 47 -37 98 -89 51 -52 98 -100 105 -106 7 -7
153 -150 323 -319 l310 -308 878 0 c483 0 880 3 884 6 7 7 -33 54 -46 54 -4 0
-15 7 -23 15 -9 8 -13 15 -10 15 3 0 -15 20 -41 45 -25 25 -50 45 -56 45 -6 0
-8 3 -4 6 7 7 -102 114 -116 114 -6 0 -8 3 -4 6 7 8 -17 34 -32 34 -6 0 -11 3
-11 8 0 10 -128 140 -134 135 -2 -3 -7 5 -11 16 -3 12 -10 21 -14 21 -12 0
-180 168 -173 174 3 3 -2 6 -11 6 -9 0 -17 7 -17 15 0 8 -4 15 -9 15 -10 0
-74 60 -63 60 4 1 -5 8 -20 16 -16 8 -28 22 -28 30 0 8 -3 13 -7 11 -10 -6
-34 19 -26 27 4 3 -1 6 -11 6 -9 0 -14 5 -11 10 3 6 2 10 -4 10 -14 0 -101 88
-101 102 0 6 -3 8 -6 5 -7 -7 -44 30 -44 45 0 4 -3 7 -7 6 -5 -2 -126 115
-270 260 -145 144 -268 262 -275 262 -6 0 -9 3 -6 6 4 3 -25 36 -63 73 -38 38
-65 71 -62 75 4 4 0 4 -10 0 -9 -3 -17 -2 -17 4 0 13 -139 152 -152 152 -6 0
-7 7 -4 16 3 8 2 13 -3 10 -5 -3 -27 15 -50 39 l-42 45 -84 -84z"/>
</g>
</svg>
