<?xml version="1.0" standalone="no"?>
<!DOCTYPE svg PUBLIC "-//W3C//DTD SVG 20010904//EN"
 "http://www.w3.org/TR/2001/REC-SVG-20010904/DTD/svg10.dtd">
<svg version="1.0" xmlns="http://www.w3.org/2000/svg"
 width="220.000000pt" height="220.000000pt" viewBox="0 0 220.000000 220.000000"
 preserveAspectRatio="xMidYMid meet">
<metadata>
Created by potrace 1.11, written by Peter Selinger 2001-2013
</metadata>
<g transform="translate(0.000000,220.000000) scale(0.100000,-0.100000)"
fill="#000000" stroke="none">
<path d="M777 1733 l-138 -45 -40 17 c-33 15 -45 16 -78 7 -52 -16 -64 -33
-54 -74 14 -54 16 -993 2 -1032 -21 -59 39 -143 121 -167 36 -11 41 -9 133 45
72 43 114 60 174 72 100 21 107 26 99 83 -10 73 -76 127 -141 115 -19 -3 -39
-12 -45 -19 -15 -18 -107 -48 -125 -41 -12 4 -15 26 -15 101 l0 95 50 25 c38
19 64 25 118 25 78 0 99 14 108 72 5 30 2 38 -31 67 -64 56 -134 68 -186 30
-64 -45 -75 -5 -63 224 l9 162 85 42 c77 39 92 43 161 43 66 0 78 3 97 23 27
29 28 72 2 114 -19 31 -66 63 -92 63 -7 -1 -75 -21 -151 -47z"/>
<path d="M1335 1463 c-58 -6 -68 -19 -60 -73 3 -25 9 -72 12 -106 l5 -61 -45
-6 c-24 -3 -60 -4 -80 0 -30 4 -37 2 -52 -21 -19 -29 -14 -84 11 -123 12 -19
23 -23 62 -23 26 1 58 7 72 15 36 20 50 18 50 -7 0 -13 7 -57 15 -98 17 -82
39 -109 86 -110 36 0 95 26 103 45 3 9 -1 47 -9 86 -25 120 -24 123 43 137 32
7 81 12 109 12 62 0 78 15 70 66 -11 67 -57 98 -116 78 -20 -6 -58 -14 -86
-16 l-49 -3 -8 50 c-5 28 -5 71 -2 97 5 45 4 48 -21 58 -26 10 -35 10 -110 3z"/>
</g>
</svg>
